<svg xmlns="http://www.w3.org/2000/svg" xmlns:xlink="http://www.w3.org/1999/xlink" width="500" zoomAndPan="magnify" viewBox="0 0 375 374.999991" height="500" preserveAspectRatio="xMidYMid meet" version="1.0"><defs><g/><clipPath id="b2f519329e"><path d="M 52 78 L 182 78 L 182 221 L 52 221 Z M 52 78 " clip-rule="nonzero"/></clipPath><clipPath id="1ae1a809dc"><path d="M 48.996094 82.402344 L 181.601562 76.191406 L 188.125 215.539062 L 55.523438 221.75 Z M 48.996094 82.402344 " clip-rule="nonzero"/></clipPath><clipPath id="175d379356"><path d="M 48.996094 82.402344 L 181.601562 76.191406 L 188.125 215.539062 L 55.523438 221.75 Z M 48.996094 82.402344 " clip-rule="nonzero"/></clipPath><clipPath id="eaa55af6ce"><path d="M 71 190 L 111 190 L 111 220 L 71 220 Z M 71 190 " clip-rule="nonzero"/></clipPath><clipPath id="c531e85d9c"><path d="M 48.996094 82.402344 L 181.601562 76.191406 L 188.125 215.539062 L 55.523438 221.75 Z M 48.996094 82.402344 " clip-rule="nonzero"/></clipPath><clipPath id="5116fcd450"><path d="M 48.996094 82.402344 L 181.601562 76.191406 L 188.125 215.539062 L 55.523438 221.75 Z M 48.996094 82.402344 " clip-rule="nonzero"/></clipPath><clipPath id="86919b2732"><path d="M 71 134 L 111 134 L 111 220 L 71 220 Z M 71 134 " clip-rule="nonzero"/></clipPath><clipPath id="e119afd056"><path d="M 48.996094 82.402344 L 181.601562 76.191406 L 188.125 215.539062 L 55.523438 221.75 Z M 48.996094 82.402344 " clip-rule="nonzero"/></clipPath><clipPath id="719e17c3b0"><path d="M 48.996094 82.402344 L 181.601562 76.191406 L 188.125 215.539062 L 55.523438 221.75 Z M 48.996094 82.402344 " clip-rule="nonzero"/></clipPath><clipPath id="83767ddb64"><path d="M 97 117 L 184 117 L 184 220 L 97 220 Z M 97 117 " clip-rule="nonzero"/></clipPath><clipPath id="d26c4d912c"><path d="M 48.996094 82.402344 L 181.601562 76.191406 L 188.125 215.539062 L 55.523438 221.75 Z M 48.996094 82.402344 " clip-rule="nonzero"/></clipPath><clipPath id="86e967b10b"><path d="M 48.996094 82.402344 L 181.601562 76.191406 L 188.125 215.539062 L 55.523438 221.75 Z M 48.996094 82.402344 " clip-rule="nonzero"/></clipPath></defs><g clip-path="url(#b2f519329e)"><g clip-path="url(#1ae1a809dc)"><g clip-path="url(#175d379356)"><path fill="#d4b79a" d="M 57.59375 164.304688 C 55.578125 121.253906 88.9375 84.714844 132.105469 82.691406 C 150.492188 81.832031 167.695312 87.375 181.539062 97.347656 C 166.957031 84.960938 147.808594 77.851562 127.160156 78.820312 C 83.992188 80.839844 50.632812 117.382812 52.648438 160.433594 C 53.804688 185.144531 66.371094 206.628906 85.027344 220.066406 C 69.121094 206.558594 58.648438 186.765625 57.59375 164.304688 " fill-opacity="1" fill-rule="nonzero"/></g></g></g><g clip-path="url(#eaa55af6ce)"><g clip-path="url(#c531e85d9c)"><g clip-path="url(#5116fcd450)"><path fill="#d4b79a" d="M 92.835938 208.019531 C 91.101562 203.265625 79.582031 194.921875 79.582031 194.921875 C 79.582031 194.921875 87.941406 198.949219 93.632812 208.0625 C 93.632812 208.0625 92.886719 210.792969 110.089844 219.117188 C 88.371094 192.707031 71.507812 190.621094 71.507812 190.621094 C 71.507812 190.621094 78.804688 193.609375 83.664062 205.753906 C 88.527344 217.898438 110.089844 219.117188 110.089844 219.117188 C 110.089844 219.117188 94.570312 212.777344 92.835938 208.019531 " fill-opacity="1" fill-rule="nonzero"/></g></g></g><g clip-path="url(#86919b2732)"><g clip-path="url(#e119afd056)"><g clip-path="url(#719e17c3b0)"><path fill="#d4b79a" d="M 110.089844 219.117188 C 110.089844 219.117188 95.238281 201.5625 86.566406 181.667969 C 86.566406 181.667969 78.917969 181.394531 74.683594 174.71875 C 74.683594 174.71875 72.203125 171.558594 71.347656 171.386719 C 71.347656 171.386719 81.484375 168.265625 87.125 180.058594 C 87.125 180.058594 91.378906 189.371094 94.375 192.195312 C 94.375 192.195312 89.84375 165.65625 94.664062 157.605469 C 94.664062 157.605469 91.78125 150.441406 95.234375 144.890625 C 98.683594 139.335938 109.445312 138.199219 109.796875 134.375 C 109.796875 134.375 112.398438 140.175781 107.582031 148.222656 C 102.765625 156.273438 96.285156 158.269531 96.285156 158.269531 C 96.285156 158.269531 90.886719 176.253906 97.101562 193.863281 C 103.316406 211.46875 107.683594 214.539062 110.089844 219.117188 " fill-opacity="1" fill-rule="nonzero"/></g></g></g><g clip-path="url(#83767ddb64)"><g clip-path="url(#d26c4d912c)"><g clip-path="url(#86e967b10b)"><path fill="#d4b79a" d="M 110.089844 219.117188 C 110.089844 219.117188 60.632812 148.625 183.539062 117.492188 C 183.539062 117.492188 58.511719 135.742188 110.089844 219.117188 " fill-opacity="1" fill-rule="nonzero"/></g></g></g><g fill="#ff66c4" fill-opacity="1"><g transform="translate(105.15626, 216.412673)"><g><path d="M 2.238281 -13.0625 C 2.238281 -5.300781 7.164062 1.492188 15.824219 1.492188 C 30.675781 1.492188 39.410156 -11.644531 39.410156 -29.78125 C 39.410156 -33.363281 39.261719 -36.347656 38.960938 -38.738281 L 48.21875 -14.332031 C 51.054688 -6.792969 51.425781 -0.746094 40.902344 -0.746094 L 40.902344 0 L 65.382812 0 L 65.382812 -0.746094 C 60.832031 -0.746094 58.441406 -4.851562 55.160156 -13.0625 L 31.273438 -76.132812 L 30.527344 -76.132812 C 25.824219 -63.742188 23.0625 -56.351562 18.511719 -44.335938 C 17.765625 -42.394531 18.136719 -40.378906 20.226562 -40.378906 C 24.480469 -40.378906 26.722656 -48.21875 30.304688 -48.21875 C 31.273438 -48.21875 32.09375 -47.621094 32.09375 -46.203125 C 32.09375 -38.4375 2.238281 -31.421875 2.238281 -13.0625 Z M 8.582031 -14.480469 C 8.582031 -32.914062 32.914062 -36.050781 32.914062 -46.050781 C 32.914062 -47.992188 31.871094 -48.964844 30.453125 -48.964844 C 26.496094 -48.964844 23.734375 -41.125 20.300781 -41.125 C 19.109375 -41.125 18.511719 -42.023438 19.480469 -44.632812 L 28.0625 -67.472656 L 37.09375 -43.664062 C 38.4375 -39.261719 38.664062 -35.15625 38.664062 -29.632812 C 38.664062 -17.390625 32.765625 -2.089844 20.300781 -2.089844 C 12.988281 -2.089844 8.582031 -7.464844 8.582031 -14.480469 Z M 8.582031 -14.480469 "/></g></g></g><g fill="#ff66c4" fill-opacity="1"><g transform="translate(170.532955, 216.412673)"><g><path d="M 22.390625 0 L 22.390625 -0.746094 C 15.972656 -0.746094 15.523438 -6.046875 15.523438 -20.75 L 15.523438 -51.128906 C 19.78125 -52.472656 29.855469 -53.292969 34.484375 -53.292969 C 39.855469 -53.292969 42.46875 -50.457031 42.46875 -47.023438 C 42.46875 -43.960938 40.527344 -41.5 38.4375 -41.425781 C 38.4375 -39.335938 40.453125 -37.992188 42.542969 -37.992188 C 46.796875 -37.992188 48.964844 -41.277344 48.964844 -45.230469 C 48.964844 -50.980469 44.039062 -54.335938 37.394531 -54.335938 C 29.109375 -54.335938 19.480469 -52.84375 10.898438 -52.84375 L 2.238281 -52.84375 L 2.238281 -52.097656 C 8.65625 -52.097656 9.105469 -46.796875 9.105469 -32.09375 L 9.105469 -20.75 C 9.105469 -6.046875 8.65625 -0.746094 2.238281 -0.746094 L 2.238281 0 Z M 22.390625 0 "/></g></g></g><g fill="#ff66c4" fill-opacity="1"><g transform="translate(220.983462, 216.412673)"><g><path d="M 2.238281 0 L 22.390625 0 L 22.390625 -0.746094 C 15.972656 -0.746094 15.523438 -6.046875 15.523438 -20.75 L 15.523438 -74.640625 L 2.238281 -74.640625 L 2.238281 -73.894531 C 8.65625 -73.894531 9.105469 -68.59375 9.105469 -53.890625 L 9.105469 -20.75 C 9.105469 -6.046875 8.65625 -0.746094 2.238281 -0.746094 Z M 2.238281 0 "/></g></g></g><g fill="#ff66c4" fill-opacity="1"><g transform="translate(245.611673, 216.412673)"><g><path d="M 22.390625 0 L 22.390625 -0.746094 C 15.972656 -0.746094 15.523438 -6.046875 15.523438 -20.75 L 15.523438 -52.84375 L 2.238281 -52.84375 L 2.238281 -52.097656 C 8.65625 -52.097656 9.105469 -46.796875 9.105469 -32.09375 L 9.105469 -20.75 C 9.105469 -6.046875 8.65625 -0.746094 2.238281 -0.746094 L 2.238281 0 Z M 6.941406 -62.621094 C 6.941406 -59.859375 9.179688 -57.621094 11.941406 -57.621094 C 14.703125 -57.621094 16.941406 -59.859375 16.941406 -62.621094 C 16.941406 -65.382812 14.703125 -67.625 11.941406 -67.625 C 9.179688 -67.625 6.941406 -65.382812 6.941406 -62.621094 Z M 6.941406 -62.621094 "/></g></g></g><g fill="#ff66c4" fill-opacity="1"><g transform="translate(269.49357, 216.412673)"><g><path d="M 2.238281 -0.746094 L 2.238281 0 L 22.390625 0 L 22.390625 -0.746094 C 15.972656 -0.746094 15.523438 -6.046875 15.523438 -20.75 L 15.523438 -51.128906 C 19.109375 -52.398438 23.289062 -53.292969 27.09375 -53.292969 C 32.167969 -53.292969 43.886719 -52.84375 43.886719 -36.125 C 43.886719 -36.125 43.960938 -22.988281 43.960938 -20.75 C 43.960938 -6.046875 43.515625 -0.746094 37.09375 -0.746094 L 37.09375 0 L 57.25 0 L 57.25 -0.746094 C 50.828125 -0.746094 50.382812 -6.046875 50.382812 -20.75 L 50.382812 -37.691406 C 50.382812 -53.367188 37.09375 -54.335938 30.453125 -54.335938 C 26.199219 -54.335938 16.867188 -52.84375 10.75 -52.84375 L 2.238281 -52.84375 L 2.238281 -52.097656 C 8.65625 -52.097656 9.105469 -46.796875 9.105469 -32.09375 L 9.105469 -20.75 C 9.105469 -6.046875 8.65625 -0.746094 2.238281 -0.746094 Z M 2.238281 -0.746094 "/></g></g></g><g fill="#ff66c4" fill-opacity="1"><g transform="translate(158.585637, 232.827507)"><g><path d="M 0.734375 -0.375 L 1.90625 -0.578125 C 2.257812 -0.640625 2.515625 -0.707031 2.671875 -0.78125 C 2.835938 -0.851562 2.953125 -0.957031 3.015625 -1.09375 C 3.078125 -1.226562 3.109375 -1.4375 3.109375 -1.71875 L 3.109375 -11.328125 C 3.109375 -11.609375 3.078125 -11.816406 3.015625 -11.953125 C 2.953125 -12.085938 2.835938 -12.191406 2.671875 -12.265625 C 2.515625 -12.335938 2.257812 -12.40625 1.90625 -12.46875 L 0.734375 -12.6875 L 0.734375 -13.046875 L 7.234375 -13.046875 C 8.566406 -13.046875 9.628906 -12.769531 10.421875 -12.21875 C 11.210938 -11.675781 11.609375 -10.945312 11.609375 -10.03125 C 11.609375 -8.5625 10.554688 -7.640625 8.453125 -7.265625 L 8.453125 -7.234375 C 9.515625 -7.097656 10.425781 -6.742188 11.1875 -6.171875 C 11.945312 -5.609375 12.328125 -4.835938 12.328125 -3.859375 C 12.328125 -2.578125 11.816406 -1.613281 10.796875 -0.96875 C 9.773438 -0.320312 8.457031 0 6.84375 0 L 0.734375 0 Z M 6.96875 -7.421875 C 7.757812 -7.421875 8.398438 -7.664062 8.890625 -8.15625 C 9.378906 -8.65625 9.625 -9.257812 9.625 -9.96875 C 9.625 -10.789062 9.375 -11.425781 8.875 -11.875 C 8.382812 -12.332031 7.679688 -12.5625 6.765625 -12.5625 L 4.984375 -12.5625 L 4.984375 -7.421875 Z M 6.84375 -0.484375 C 7.4375 -0.484375 7.984375 -0.613281 8.484375 -0.875 C 8.992188 -1.144531 9.394531 -1.523438 9.6875 -2.015625 C 9.988281 -2.503906 10.140625 -3.070312 10.140625 -3.71875 C 10.140625 -4.65625 9.847656 -5.421875 9.265625 -6.015625 C 8.679688 -6.609375 7.875 -6.90625 6.84375 -6.90625 L 4.984375 -6.90625 L 4.984375 -1.75 C 4.984375 -1.300781 5.082031 -0.976562 5.28125 -0.78125 C 5.476562 -0.59375 5.84375 -0.492188 6.375 -0.484375 Z M 6.84375 -0.484375 "/></g></g></g><g fill="#ff66c4" fill-opacity="1"><g transform="translate(175.198811, 232.827507)"><g><path d="M 8.015625 -1.828125 C 7.546875 -1.160156 7.019531 -0.660156 6.4375 -0.328125 C 5.863281 -0.00390625 5.296875 0.15625 4.734375 0.15625 C 3.984375 0.15625 3.3125 -0.03125 2.71875 -0.40625 C 2.125 -0.78125 1.65625 -1.285156 1.3125 -1.921875 C 0.976562 -2.554688 0.8125 -3.257812 0.8125 -4.03125 C 0.8125 -4.882812 0.988281 -5.644531 1.34375 -6.3125 C 1.695312 -6.988281 2.179688 -7.515625 2.796875 -7.890625 C 3.410156 -8.273438 4.097656 -8.46875 4.859375 -8.46875 C 5.460938 -8.46875 5.992188 -8.316406 6.453125 -8.015625 C 6.921875 -7.722656 7.285156 -7.320312 7.546875 -6.8125 C 7.804688 -6.300781 7.9375 -5.738281 7.9375 -5.125 C 7.9375 -4.90625 7.820312 -4.796875 7.59375 -4.796875 L 2.359375 -4.796875 L 2.359375 -4.484375 C 2.359375 -3.390625 2.640625 -2.535156 3.203125 -1.921875 C 3.765625 -1.316406 4.46875 -1.015625 5.3125 -1.015625 C 6.113281 -1.015625 6.925781 -1.351562 7.75 -2.03125 Z M 4.671875 -7.953125 C 4.085938 -7.953125 3.59375 -7.710938 3.1875 -7.234375 C 2.78125 -6.753906 2.523438 -6.109375 2.421875 -5.296875 L 5.921875 -5.390625 C 6.148438 -5.390625 6.265625 -5.515625 6.265625 -5.765625 C 6.265625 -6.421875 6.128906 -6.945312 5.859375 -7.34375 C 5.585938 -7.75 5.191406 -7.953125 4.671875 -7.953125 Z M 4.671875 -7.953125 "/></g></g></g><g fill="#ff66c4" fill-opacity="1"><g transform="translate(187.004707, 232.827507)"><g><path d="M 7.9375 -0.75 C 8.207031 -0.75 8.503906 -0.816406 8.828125 -0.953125 L 8.828125 -0.625 C 8.535156 -0.4375 8.207031 -0.257812 7.84375 -0.09375 C 7.476562 0.0625 7.175781 0.140625 6.9375 0.140625 C 6.582031 0.140625 6.332031 0.0234375 6.1875 -0.203125 C 6.050781 -0.429688 5.972656 -0.742188 5.953125 -1.140625 C 5.460938 -0.753906 5.015625 -0.441406 4.609375 -0.203125 C 4.203125 0.0234375 3.8125 0.140625 3.4375 0.140625 C 3.03125 0.140625 2.644531 0.0195312 2.28125 -0.21875 C 1.925781 -0.46875 1.640625 -0.789062 1.421875 -1.1875 C 1.210938 -1.59375 1.109375 -2.019531 1.109375 -2.46875 C 1.109375 -2.664062 1.125 -2.8125 1.15625 -2.90625 C 1.195312 -3.007812 1.269531 -3.082031 1.375 -3.125 L 5.125 -4.484375 C 5.414062 -4.597656 5.613281 -4.722656 5.71875 -4.859375 C 5.832031 -4.992188 5.890625 -5.191406 5.890625 -5.453125 L 5.890625 -5.859375 C 5.890625 -6.472656 5.742188 -6.976562 5.453125 -7.375 C 5.160156 -7.78125 4.734375 -7.984375 4.171875 -7.984375 C 3.796875 -7.984375 3.484375 -7.894531 3.234375 -7.71875 C 2.992188 -7.550781 2.875 -7.320312 2.875 -7.03125 C 2.875 -6.914062 2.9375 -6.769531 3.0625 -6.59375 C 3.257812 -6.320312 3.359375 -6.082031 3.359375 -5.875 C 3.359375 -5.613281 3.265625 -5.40625 3.078125 -5.25 C 2.898438 -5.09375 2.671875 -5.015625 2.390625 -5.015625 C 2.097656 -5.015625 1.867188 -5.101562 1.703125 -5.28125 C 1.535156 -5.46875 1.453125 -5.722656 1.453125 -6.046875 C 1.453125 -6.472656 1.597656 -6.875 1.890625 -7.25 C 2.191406 -7.625 2.582031 -7.921875 3.0625 -8.140625 C 3.539062 -8.359375 4.03125 -8.46875 4.53125 -8.46875 C 5.425781 -8.46875 6.125 -8.21875 6.625 -7.71875 C 7.125 -7.226562 7.375 -6.59375 7.375 -5.8125 L 7.375 -1.71875 C 7.375 -1.394531 7.40625 -1.148438 7.46875 -0.984375 C 7.539062 -0.828125 7.695312 -0.75 7.9375 -0.75 Z M 5.921875 -4.078125 C 5.921875 -4.109375 5.898438 -4.132812 5.859375 -4.15625 C 5.828125 -4.175781 5.796875 -4.179688 5.765625 -4.171875 L 2.84375 -3.0625 C 2.769531 -3.039062 2.71875 -2.984375 2.6875 -2.890625 C 2.65625 -2.796875 2.640625 -2.644531 2.640625 -2.4375 C 2.640625 -2.1875 2.710938 -1.9375 2.859375 -1.6875 C 3.003906 -1.4375 3.191406 -1.226562 3.421875 -1.0625 C 3.648438 -0.90625 3.867188 -0.828125 4.078125 -0.828125 C 4.484375 -0.828125 4.992188 -1.039062 5.609375 -1.46875 C 5.816406 -1.632812 5.921875 -1.875 5.921875 -2.1875 Z M 5.921875 -4.078125 "/></g></g></g><g fill="#ff66c4" fill-opacity="1"><g transform="translate(199.178894, 232.827507)"><g><path d="M 8.265625 -1.5 C 8.265625 -1.125 8.390625 -0.859375 8.640625 -0.703125 C 8.898438 -0.546875 9.300781 -0.476562 9.84375 -0.5 L 9.84375 -0.109375 C 9.445312 -0.0976562 8.847656 -0.0390625 8.046875 0.0625 L 7.265625 0.15625 L 7.09375 0.078125 L 6.96875 -1.078125 L 6.828125 -1.078125 C 6.515625 -0.953125 6.140625 -0.78125 5.703125 -0.5625 C 5.273438 -0.34375 4.910156 -0.144531 4.609375 0.03125 C 4.484375 0.101562 4.382812 0.140625 4.3125 0.140625 C 2.46875 0.140625 1.546875 -0.757812 1.546875 -2.5625 L 1.546875 -6.921875 C 1.546875 -7.148438 1.507812 -7.316406 1.4375 -7.421875 C 1.375 -7.523438 1.25 -7.617188 1.0625 -7.703125 L 0.265625 -7.984375 L 0.265625 -8.21875 C 1.179688 -8.226562 2.113281 -8.320312 3.0625 -8.5 L 3.234375 -8.375 C 3.078125 -8 3 -7.597656 3 -7.171875 L 3 -2.890625 C 3 -2.265625 3.164062 -1.789062 3.5 -1.46875 C 3.832031 -1.144531 4.296875 -0.984375 4.890625 -0.984375 C 5.441406 -0.984375 5.898438 -1.179688 6.265625 -1.578125 C 6.628906 -1.972656 6.8125 -2.457031 6.8125 -3.03125 L 6.8125 -6.921875 C 6.8125 -7.148438 6.773438 -7.316406 6.703125 -7.421875 C 6.628906 -7.523438 6.503906 -7.617188 6.328125 -7.703125 L 5.53125 -7.984375 L 5.53125 -8.21875 C 6.414062 -8.226562 7.34375 -8.320312 8.3125 -8.5 L 8.5 -8.375 C 8.34375 -8 8.265625 -7.597656 8.265625 -7.171875 Z M 8.265625 -1.5 "/></g></g></g><g fill="#ff66c4" fill-opacity="1"><g transform="translate(212.613061, 232.827507)"><g><path d="M 3.453125 0.15625 C 2.878906 0.15625 2.457031 -0.0195312 2.1875 -0.375 C 1.914062 -0.726562 1.78125 -1.273438 1.78125 -2.015625 L 1.78125 -7.75 L 0.46875 -7.75 L 0.46875 -8.15625 C 1.238281 -8.332031 1.796875 -8.625 2.140625 -9.03125 C 2.492188 -9.445312 2.710938 -10.054688 2.796875 -10.859375 L 3.234375 -10.859375 L 3.234375 -8.3125 L 5.78125 -8.3125 L 5.578125 -7.75 L 3.234375 -7.75 L 3.234375 -2.1875 C 3.234375 -1.707031 3.3125 -1.359375 3.46875 -1.140625 C 3.625 -0.929688 3.851562 -0.828125 4.15625 -0.828125 C 4.539062 -0.828125 5.03125 -1 5.625 -1.34375 L 5.875 -0.984375 C 5.425781 -0.628906 4.988281 -0.347656 4.5625 -0.140625 C 4.132812 0.0546875 3.765625 0.15625 3.453125 0.15625 Z M 3.453125 0.15625 "/></g></g></g><g fill="#ff66c4" fill-opacity="1"><g transform="translate(222.151004, 232.827507)"><g><path d="M 9.03125 -8.3125 L 9.03125 -8.015625 L 8.390625 -7.859375 C 8.210938 -7.804688 8.082031 -7.742188 8 -7.671875 C 7.914062 -7.609375 7.847656 -7.507812 7.796875 -7.375 L 3.640625 3.0625 C 3.398438 3.664062 3.113281 4.140625 2.78125 4.484375 C 2.445312 4.835938 2.023438 5.015625 1.515625 5.015625 C 1.203125 5.015625 0.941406 4.925781 0.734375 4.75 C 0.523438 4.570312 0.421875 4.335938 0.421875 4.046875 C 0.421875 3.742188 0.519531 3.488281 0.71875 3.28125 C 0.914062 3.082031 1.160156 2.984375 1.453125 2.984375 C 1.660156 2.984375 1.878906 3.070312 2.109375 3.25 C 2.273438 3.375 2.40625 3.4375 2.5 3.4375 C 2.707031 3.4375 2.875 3.285156 3 2.984375 L 4.375 -0.46875 L 1.3125 -7.40625 C 1.257812 -7.550781 1.191406 -7.65625 1.109375 -7.71875 C 1.023438 -7.78125 0.898438 -7.832031 0.734375 -7.875 L 0.140625 -8.015625 L 0.140625 -8.3125 L 4.34375 -8.3125 L 4.34375 -8.015625 L 3.375 -7.796875 C 3.007812 -7.703125 2.875 -7.535156 2.96875 -7.296875 L 5.140625 -2.3125 L 7.1875 -7.40625 C 7.207031 -7.4375 7.21875 -7.476562 7.21875 -7.53125 C 7.21875 -7.644531 7.09375 -7.734375 6.84375 -7.796875 L 5.9375 -8.015625 L 5.9375 -8.3125 Z M 9.03125 -8.3125 "/></g></g></g><g fill="#ff66c4" fill-opacity="1"><g transform="translate(234.363969, 232.827507)"><g/></g></g><g fill="#ff66c4" fill-opacity="1"><g transform="translate(242.641935, 232.827507)"><g><path d="M 7.875 0.234375 C 6.519531 0.234375 5.304688 -0.0625 4.234375 -0.65625 C 3.171875 -1.25 2.34375 -2.0625 1.75 -3.09375 C 1.15625 -4.125 0.859375 -5.265625 0.859375 -6.515625 C 0.859375 -7.804688 1.171875 -8.957031 1.796875 -9.96875 C 2.429688 -10.988281 3.28125 -11.78125 4.34375 -12.34375 C 5.414062 -12.914062 6.566406 -13.203125 7.796875 -13.203125 C 8.429688 -13.203125 8.96875 -13.15625 9.40625 -13.0625 C 9.84375 -12.976562 10.289062 -12.859375 10.75 -12.703125 C 11.070312 -12.585938 11.332031 -12.5 11.53125 -12.4375 C 11.738281 -12.382812 11.960938 -12.359375 12.203125 -12.359375 C 12.328125 -12.359375 12.457031 -12.367188 12.59375 -12.390625 C 12.726562 -12.410156 12.835938 -12.429688 12.921875 -12.453125 L 12.953125 -12.40625 C 12.898438 -12.039062 12.875 -11.710938 12.875 -11.421875 C 12.875 -10.691406 12.984375 -9.890625 13.203125 -9.015625 L 12.796875 -9.015625 C 12.398438 -10.015625 11.765625 -10.878906 10.890625 -11.609375 C 10.023438 -12.335938 9.003906 -12.703125 7.828125 -12.703125 C 6.953125 -12.703125 6.140625 -12.4375 5.390625 -11.90625 C 4.640625 -11.382812 4.039062 -10.65625 3.59375 -9.71875 C 3.144531 -8.78125 2.921875 -7.71875 2.921875 -6.53125 C 2.921875 -5.34375 3.128906 -4.273438 3.546875 -3.328125 C 3.972656 -2.378906 4.5625 -1.628906 5.3125 -1.078125 C 6.070312 -0.535156 6.925781 -0.265625 7.875 -0.265625 C 8.78125 -0.265625 9.710938 -0.539062 10.671875 -1.09375 C 11.640625 -1.65625 12.375 -2.632812 12.875 -4.03125 L 13.28125 -4.03125 C 12.945312 -2.488281 12.78125 -1.3125 12.78125 -0.5 L 12.578125 -0.5 C 12.304688 -0.5 11.769531 -0.421875 10.96875 -0.265625 L 10.515625 -0.171875 C 9.398438 0.0976562 8.519531 0.234375 7.875 0.234375 Z M 7.875 0.234375 "/></g></g></g><g fill="#ff66c4" fill-opacity="1"><g transform="translate(259.991708, 232.827507)"><g><path d="M 7.9375 -0.75 C 8.207031 -0.75 8.503906 -0.816406 8.828125 -0.953125 L 8.828125 -0.625 C 8.535156 -0.4375 8.207031 -0.257812 7.84375 -0.09375 C 7.476562 0.0625 7.175781 0.140625 6.9375 0.140625 C 6.582031 0.140625 6.332031 0.0234375 6.1875 -0.203125 C 6.050781 -0.429688 5.972656 -0.742188 5.953125 -1.140625 C 5.460938 -0.753906 5.015625 -0.441406 4.609375 -0.203125 C 4.203125 0.0234375 3.8125 0.140625 3.4375 0.140625 C 3.03125 0.140625 2.644531 0.0195312 2.28125 -0.21875 C 1.925781 -0.46875 1.640625 -0.789062 1.421875 -1.1875 C 1.210938 -1.59375 1.109375 -2.019531 1.109375 -2.46875 C 1.109375 -2.664062 1.125 -2.8125 1.15625 -2.90625 C 1.195312 -3.007812 1.269531 -3.082031 1.375 -3.125 L 5.125 -4.484375 C 5.414062 -4.597656 5.613281 -4.722656 5.71875 -4.859375 C 5.832031 -4.992188 5.890625 -5.191406 5.890625 -5.453125 L 5.890625 -5.859375 C 5.890625 -6.472656 5.742188 -6.976562 5.453125 -7.375 C 5.160156 -7.78125 4.734375 -7.984375 4.171875 -7.984375 C 3.796875 -7.984375 3.484375 -7.894531 3.234375 -7.71875 C 2.992188 -7.550781 2.875 -7.320312 2.875 -7.03125 C 2.875 -6.914062 2.9375 -6.769531 3.0625 -6.59375 C 3.257812 -6.320312 3.359375 -6.082031 3.359375 -5.875 C 3.359375 -5.613281 3.265625 -5.40625 3.078125 -5.25 C 2.898438 -5.09375 2.671875 -5.015625 2.390625 -5.015625 C 2.097656 -5.015625 1.867188 -5.101562 1.703125 -5.28125 C 1.535156 -5.46875 1.453125 -5.722656 1.453125 -6.046875 C 1.453125 -6.472656 1.597656 -6.875 1.890625 -7.25 C 2.191406 -7.625 2.582031 -7.921875 3.0625 -8.140625 C 3.539062 -8.359375 4.03125 -8.46875 4.53125 -8.46875 C 5.425781 -8.46875 6.125 -8.21875 6.625 -7.71875 C 7.125 -7.226562 7.375 -6.59375 7.375 -5.8125 L 7.375 -1.71875 C 7.375 -1.394531 7.40625 -1.148438 7.46875 -0.984375 C 7.539062 -0.828125 7.695312 -0.75 7.9375 -0.75 Z M 5.921875 -4.078125 C 5.921875 -4.109375 5.898438 -4.132812 5.859375 -4.15625 C 5.828125 -4.175781 5.796875 -4.179688 5.765625 -4.171875 L 2.84375 -3.0625 C 2.769531 -3.039062 2.71875 -2.984375 2.6875 -2.890625 C 2.65625 -2.796875 2.640625 -2.644531 2.640625 -2.4375 C 2.640625 -2.1875 2.710938 -1.9375 2.859375 -1.6875 C 3.003906 -1.4375 3.191406 -1.226562 3.421875 -1.0625 C 3.648438 -0.90625 3.867188 -0.828125 4.078125 -0.828125 C 4.484375 -0.828125 4.992188 -1.039062 5.609375 -1.46875 C 5.816406 -1.632812 5.921875 -1.875 5.921875 -2.1875 Z M 5.921875 -4.078125 "/></g></g></g><g fill="#ff66c4" fill-opacity="1"><g transform="translate(272.165892, 232.827507)"><g><path d="M 5.875 -8.5 C 6.132812 -8.5 6.359375 -8.40625 6.546875 -8.21875 C 6.734375 -8.03125 6.828125 -7.785156 6.828125 -7.484375 C 6.828125 -7.222656 6.734375 -7 6.546875 -6.8125 C 6.359375 -6.625 6.113281 -6.53125 5.8125 -6.53125 C 5.644531 -6.53125 5.5 -6.566406 5.375 -6.640625 C 5.257812 -6.710938 5.132812 -6.8125 5 -6.9375 C 4.8125 -7.15625 4.648438 -7.265625 4.515625 -7.265625 C 4.390625 -7.265625 4.238281 -7.203125 4.0625 -7.078125 C 3.894531 -6.960938 3.742188 -6.757812 3.609375 -6.46875 C 3.472656 -6.1875 3.40625 -5.828125 3.40625 -5.390625 L 3.40625 -1.140625 C 3.40625 -0.960938 3.441406 -0.820312 3.515625 -0.71875 C 3.585938 -0.625 3.726562 -0.550781 3.9375 -0.5 L 4.828125 -0.296875 L 4.828125 0 L 0.65625 0 L 0.65625 -0.296875 L 1.453125 -0.5 C 1.648438 -0.550781 1.78125 -0.625 1.84375 -0.71875 C 1.914062 -0.820312 1.953125 -0.96875 1.953125 -1.15625 L 1.953125 -6.5 C 1.953125 -6.738281 1.914062 -6.910156 1.84375 -7.015625 C 1.78125 -7.128906 1.65625 -7.210938 1.46875 -7.265625 L 0.671875 -7.484375 L 0.671875 -7.703125 C 1.234375 -7.804688 1.71875 -7.921875 2.125 -8.046875 C 2.539062 -8.171875 2.953125 -8.332031 3.359375 -8.53125 L 3.53125 -8.421875 C 3.375 -8.046875 3.296875 -7.644531 3.296875 -7.21875 L 3.296875 -7.171875 L 5.3125 -8.34375 C 5.519531 -8.445312 5.707031 -8.5 5.875 -8.5 Z M 5.875 -8.5 "/></g></g></g><g fill="#ff66c4" fill-opacity="1"><g transform="translate(282.265964, 232.827507)"><g><path d="M 8.015625 -1.828125 C 7.546875 -1.160156 7.019531 -0.660156 6.4375 -0.328125 C 5.863281 -0.00390625 5.296875 0.15625 4.734375 0.15625 C 3.984375 0.15625 3.3125 -0.03125 2.71875 -0.40625 C 2.125 -0.78125 1.65625 -1.285156 1.3125 -1.921875 C 0.976562 -2.554688 0.8125 -3.257812 0.8125 -4.03125 C 0.8125 -4.882812 0.988281 -5.644531 1.34375 -6.3125 C 1.695312 -6.988281 2.179688 -7.515625 2.796875 -7.890625 C 3.410156 -8.273438 4.097656 -8.46875 4.859375 -8.46875 C 5.460938 -8.46875 5.992188 -8.316406 6.453125 -8.015625 C 6.921875 -7.722656 7.285156 -7.320312 7.546875 -6.8125 C 7.804688 -6.300781 7.9375 -5.738281 7.9375 -5.125 C 7.9375 -4.90625 7.820312 -4.796875 7.59375 -4.796875 L 2.359375 -4.796875 L 2.359375 -4.484375 C 2.359375 -3.390625 2.640625 -2.535156 3.203125 -1.921875 C 3.765625 -1.316406 4.46875 -1.015625 5.3125 -1.015625 C 6.113281 -1.015625 6.925781 -1.351562 7.75 -2.03125 Z M 4.671875 -7.953125 C 4.085938 -7.953125 3.59375 -7.710938 3.1875 -7.234375 C 2.78125 -6.753906 2.523438 -6.109375 2.421875 -5.296875 L 5.921875 -5.390625 C 6.148438 -5.390625 6.265625 -5.515625 6.265625 -5.765625 C 6.265625 -6.421875 6.128906 -6.945312 5.859375 -7.34375 C 5.585938 -7.75 5.191406 -7.953125 4.671875 -7.953125 Z M 4.671875 -7.953125 "/></g></g></g></svg>